<svg width="944" height="944" viewBox="0 0 944 944" fill="none" xmlns="http://www.w3.org/2000/svg">
<g filter="url(#filter0_d)">
<path d="M591.03 199.288H343.476C265.071 199.288 201.576 262.793 201.576 341.21V588.801C201.576 667.218 265.071 730.466 343.476 730.466H591.03C669.435 730.466 732.673 666.961 732.673 588.801V341.21C732.93 262.793 669.435 199.288 591.03 199.288ZM547.843 448.937C545.529 449.965 545.272 453.564 547.586 454.85C585.631 475.675 581.261 516.555 581.261 516.555C577.662 598.829 482.805 595.229 482.805 595.229L336.535 592.144L384.863 316.528C384.863 316.528 486.404 314.985 519.308 316.528C552.213 318.07 590.001 331.44 595.143 380.804C598.742 420.141 562.752 441.738 547.843 448.937Z" fill="#0175A8"/>
<path d="M378.181 179.491C363.014 179.491 350.675 167.15 350.675 151.981V53.5102C350.675 38.341 363.014 26 378.181 26C393.348 26 405.687 38.341 405.687 53.5102V151.981C405.687 167.15 393.348 179.491 378.181 179.491Z" fill="#FEFEFF"/>
<path d="M466.867 179.491C451.701 179.491 439.361 167.15 439.361 151.981V53.5102C439.361 38.341 451.701 26 466.867 26C482.034 26 494.373 38.341 494.373 53.5102V151.981C494.373 167.15 482.034 179.491 466.867 179.491Z" fill="#FEFEFF"/>
<path d="M552.983 179.491C537.816 179.491 525.477 167.15 525.477 151.981V53.5102C525.477 38.341 537.816 26 552.983 26C568.149 26 580.489 38.341 580.489 53.5102V151.981C580.489 167.15 568.149 179.491 552.983 179.491Z" fill="#FEFEFF"/>
<path d="M378.181 909.156C363.014 909.156 350.675 896.815 350.675 881.646V783.175C350.675 768.006 363.014 755.665 378.181 755.665C393.348 755.665 405.687 768.006 405.687 783.175V881.646C405.687 896.815 393.348 909.156 378.181 909.156Z" fill="#FEFEFF"/>
<path d="M466.867 909.153C451.701 909.153 439.361 896.812 439.361 881.643V783.172C439.361 768.003 451.701 755.662 466.867 755.662C482.034 755.662 494.373 768.003 494.373 783.172V881.643C494.373 896.812 482.034 909.153 466.867 909.153Z" fill="#FEFEFF"/>
<path d="M552.983 909.153C537.816 909.153 525.477 896.812 525.477 881.643V783.172C525.477 768.003 537.816 755.662 552.983 755.662C568.149 755.662 580.489 768.003 580.489 783.172V881.643C580.489 896.812 568.149 909.153 552.983 909.153Z" fill="#FEFEFF"/>
<path d="M179.468 552.293C179.468 567.462 167.129 579.803 151.962 579.803H53.506C38.3391 579.803 26 567.462 26 552.293C26 537.123 38.3391 524.782 53.506 524.782H151.962C167.129 524.525 179.468 536.866 179.468 552.293Z" fill="#FEFEFF"/>
<path d="M179.468 463.592C179.468 478.761 167.129 491.102 151.962 491.102H53.506C38.3391 491.102 26 478.761 26 463.592C26 448.423 38.3391 436.082 53.506 436.082H151.962C167.129 436.082 179.468 448.423 179.468 463.592Z" fill="#FEFEFF"/>
<path d="M179.468 377.461C179.468 392.631 167.129 404.972 151.962 404.972H53.506C38.3391 404.972 26 392.631 26 377.461C26 362.292 38.3391 349.951 53.506 349.951H151.962C167.129 349.951 179.468 362.292 179.468 377.461Z" fill="#FEFEFF"/>
<path d="M909.019 552.293C909.019 567.462 896.68 579.803 881.513 579.803H783.057C767.89 579.803 755.551 567.462 755.551 552.293C755.551 537.123 767.89 524.782 783.057 524.782H881.513C896.68 524.525 909.019 536.866 909.019 552.293Z" fill="#FEFEFF"/>
<path d="M909.019 463.592C909.019 478.761 896.68 491.102 881.513 491.102H783.057C767.89 491.102 755.551 478.761 755.551 463.592C755.551 448.423 767.89 436.082 783.057 436.082H881.513C896.68 436.082 909.019 448.423 909.019 463.592Z" fill="#FEFEFF"/>
<path d="M909.024 377.461C909.024 392.631 896.685 404.972 881.518 404.972H783.063C767.896 404.972 755.557 392.631 755.557 377.461C755.557 362.292 767.896 349.951 783.063 349.951H881.518C896.685 349.951 909.024 362.292 909.024 377.461Z" fill="#FEFEFF"/>
<path d="M440.132 370.52C440.647 366.92 443.731 364.606 447.33 364.606H494.373C494.373 364.606 524.964 363.321 525.478 395.202C525.992 427.083 496.173 426.826 483.319 426.826C474.322 426.826 451.7 426.826 439.104 426.826C434.734 426.826 431.135 422.712 431.906 418.341L440.132 370.52Z" fill="#0175A8"/>
<path d="M428.051 475.933H483.834C483.834 475.933 513.91 477.733 513.91 509.614C513.91 541.494 471.752 543.294 460.955 543.294H421.624C415.712 543.294 411.341 538.152 412.37 532.496L420.596 481.846C421.367 478.504 424.452 475.933 428.051 475.933Z" fill="#0175A8"/>
</g>
<defs>
<filter id="filter0_d" x="0" y="0" width="943.024" height="943.156" filterUnits="userSpaceOnUse" color-interpolation-filters="sRGB">
<feFlood flood-opacity="0" result="BackgroundImageFix"/>
<feColorMatrix in="SourceAlpha" type="matrix" values="0 0 0 0 0 0 0 0 0 0 0 0 0 0 0 0 0 0 127 0"/>
<feOffset dx="4" dy="4"/>
<feGaussianBlur stdDeviation="15"/>
<feColorMatrix type="matrix" values="0 0 0 0 0 0 0 0 0 0 0 0 0 0 0 0 0 0 0.4 0"/>
<feBlend mode="normal" in2="BackgroundImageFix" result="effect1_dropShadow"/>
<feBlend mode="normal" in="SourceGraphic" in2="effect1_dropShadow" result="shape"/>
</filter>
</defs>
</svg>
